# xmcd
#
# Track frame offsets:
#	150
#	18424
#	50424
#	66626
#	84926
#	109800
#	120275
#	146227
#	168052
#	203219
#
# Disc length: 4116 seconds
#
# Revision: 4
# Processed by: cddbd v1.5.2PL0 Copyright (c) Steve Scherf et al.
# Submitted via: EZCDAudioConverter 2.1.7.1
#
DISCID=8510120a
DTITLE=V/A - Real World Notes V09
DYEAR=1900
DGENRE=
TTITLE0=Joseph Arthur - Eyes On My Back
TTITLE1=Iarla Ó Lionáird - I'm Streched On Your Grave/Táim Sínte Ar Do Thuama
TTITLE2=Tama - Ta'aba [Remix]
TTITLE3=Andy White - Last Day Of Summer
TTITLE4=Afro Celt Sound System - Release [Bi-Polar Remix]
TTITLE5=Telek - Serious Tam
TTITLE6=Anandar Shankar Experience and State Of Bengal - (Al Marta) Bogsdollox [
TTITLE6=DJ Ras Claut Mix]
TTITLE7=Peter Gabriel - 100 Days To Go
TTITLE8=Lama Gyurme and Jean-Philippe Rykiel - Offering Chant [Unplugged]
TTITLE9=Various Artist - Ecd Track10
EXTD=
EXTT0=
EXTT1=
EXTT2=
EXTT3=
EXTT4=
EXTT5=
EXTT6=
EXTT7=
EXTT8=
EXTT9=
PLAYORDER=
